<svg version="1.1" xmlns="http://www.w3.org/2000/svg" viewBox="0 0 77.17625509350796 88.30065361301888" width="77.17625509350796" height="88.30065361301888">
  <!-- svg-source:excalidraw -->
  
  <defs>
    <style class="style-fonts">
      @font-face {
        font-family: "Virgil";
        src: url("https://excalidraw.com/Virgil.woff2");
      }
      @font-face {
        font-family: "Cascadia";
        src: url("https://excalidraw.com/Cascadia.woff2");
      }
      @font-face {
        font-family: "Assistant";
        src: url("https://excalidraw.com/Assistant-Regular.woff2");
      }
    </style>
    
  </defs>
  <rect x="0" y="0" width="77.17625509350796" height="88.30065361301888" fill="#ffffff"></rect><g stroke-linecap="round" transform="translate(50.17625509350796 45.99525739889134) rotate(0 8.5 9.5)"><path d="M8.7 -0.44 C10.4 -0.52, 12.57 1.1, 13.9 2.43 C15.24 3.76, 16.44 5.57, 16.71 7.53 C16.98 9.49, 16.34 12.34, 15.55 14.17 C14.75 16, 13.65 17.72, 11.95 18.52 C10.25 19.31, 7.16 19.7, 5.36 18.95 C3.55 18.2, 1.97 15.94, 1.13 14.04 C0.29 12.13, 0.06 9.46, 0.3 7.52 C0.54 5.59, 1.17 3.74, 2.58 2.42 C3.98 1.11, 7.51 -0.08, 8.72 -0.36 C9.93 -0.64, 9.75 0.46, 9.83 0.75 M8.91 -0.07 C10.46 -0.22, 12.08 1.07, 13.37 2.48 C14.67 3.88, 16.31 6.35, 16.69 8.36 C17.08 10.37, 16.67 12.92, 15.7 14.54 C14.74 16.15, 12.73 17.31, 10.9 18.05 C9.07 18.78, 6.45 19.67, 4.73 18.93 C3 18.19, 1.35 15.37, 0.54 13.61 C-0.27 11.86, -0.53 10.33, -0.13 8.39 C0.28 6.45, 1.52 3.27, 2.96 1.98 C4.4 0.68, 7.52 1, 8.53 0.63 C9.54 0.26, 8.92 -0.22, 9.04 -0.22" stroke="none" stroke-width="0" fill="#ffd43b"></path><path d="M9.23 0.15 C11.04 0.11, 13.63 1.16, 14.84 2.6 C16.05 4.04, 16.31 6.76, 16.5 8.79 C16.68 10.82, 16.85 13.14, 15.94 14.79 C15.04 16.43, 12.96 18.14, 11.06 18.66 C9.17 19.18, 6.26 18.81, 4.57 17.89 C2.88 16.98, 1.67 14.94, 0.93 13.17 C0.2 11.41, -0.32 9.13, 0.16 7.31 C0.65 5.48, 2.34 3.51, 3.86 2.22 C5.38 0.94, 8.4 -0.06, 9.29 -0.43 C10.19 -0.8, 9.28 -0.18, 9.23 -0.01 M6.57 -0.1 C8.32 -0.71, 11.43 -0.5, 13.05 0.44 C14.66 1.37, 15.61 3.47, 16.25 5.49 C16.89 7.52, 17.39 10.6, 16.87 12.58 C16.36 14.56, 14.81 16.45, 13.15 17.38 C11.5 18.31, 8.65 18.5, 6.93 18.17 C5.21 17.84, 4.06 16.93, 2.83 15.42 C1.59 13.9, -0.36 11, -0.48 9.07 C-0.6 7.15, 0.92 5.31, 2.1 3.89 C3.29 2.47, 5.85 1.28, 6.64 0.57 C7.44 -0.14, 6.82 -0.48, 6.87 -0.37" stroke="#f08c00" stroke-width="2" fill="none"></path></g><g stroke-linecap="round"><g transform="translate(50.17625509350796 40.99525739889134) rotate(0 -11 -9.5)"><path d="M-0.12 0.9 C-3.83 -2.2, -19.04 -15.08, -22.74 -18.26 M-1.64 0.32 C-4.93 -3.15, -16.82 -16.59, -20.41 -20" stroke="#f08c00" stroke-width="2" fill="none"></path></g></g><mask></mask><g stroke-linecap="round"><g transform="translate(62.60499247162829 36.544713649153664) rotate(0 -1 -13)"><path d="M-0.15 -0.21 C-0.5 -4.63, -1.71 -22.17, -1.93 -26.54 M0.78 -0.8 C0.34 -5.16, -1.94 -21.91, -2.33 -26.13" stroke="#f08c00" stroke-width="2" fill="none"></path></g></g><mask></mask><g stroke-linecap="round"><g transform="translate(39.17625509350796 51.99525739889134) rotate(0 -14.5 -2.5)"><path d="M-0.45 -0.48 C-5.34 -1.45, -24.09 -4.53, -28.83 -5.37 M0.33 0.47 C-4.67 -0.48, -24.25 -3.91, -29.18 -4.86" stroke="#f08c00" stroke-width="2" fill="none"></path></g></g><mask></mask><g stroke-linecap="round"><g transform="translate(43.17625509350796 68.99525739889134) rotate(0 -12.5 4.5)"><path d="M0.32 0.48 C-3.96 2.06, -21.22 7.91, -25.51 9.31 M-0.17 0.25 C-4.32 1.69, -20.52 6.97, -24.55 8.5" stroke="#f08c00" stroke-width="2" fill="none"></path></g></g><mask></mask></svg>